<svg viewBox="0 0 1280 720"><line key="0" x1="0" y1="0" x2="1280" y2="0" stroke="#06B6D4" stroke-width="0.5" /><line key="1" x1="0" y1="60" x2="1280" y2="60" stroke="#06B6D4" stroke-width="0.5" /><line key="2" x1="0" y1="120" x2="1280" y2="120" stroke="#06B6D4" stroke-width="0.5" /><line key="3" x1="0" y1="180" x2="1280" y2="180" stroke="#06B6D4" stroke-width="0.5" /><line key="4" x1="0" y1="240" x2="1280" y2="240" stroke="#06B6D4" stroke-width="0.5" /><line key="5" x1="0" y1="300" x2="1280" y2="300" stroke="#06B6D4" stroke-width="0.5" /><line key="6" x1="0" y1="360" x2="1280" y2="360" stroke="#06B6D4" stroke-width="0.5" /><line key="7" x1="0" y1="420" x2="1280" y2="420" stroke="#06B6D4" stroke-width="0.5" /><line key="8" x1="0" y1="480" x2="1280" y2="480" stroke="#06B6D4" stroke-width="0.5" /><line key="9" x1="0" y1="540" x2="1280" y2="540" stroke="#06B6D4" stroke-width="0.5" /><line key="10" x1="0" y1="600" x2="1280" y2="600" stroke="#06B6D4" stroke-width="0.5" /><line key="11" x1="0" y1="660" x2="1280" y2="660" stroke="#06B6D4" stroke-width="0.5" /><line key="0" x1="0" y1="0" x2="0" y2="720" stroke="#06B6D4" stroke-width="0.5" /><line key="1" x1="60" y1="0" x2="60" y2="720" stroke="#06B6D4" stroke-width="0.5" /><line key="2" x1="120" y1="0" x2="120" y2="720" stroke="#06B6D4" stroke-width="0.5" /><line key="3" x1="180" y1="0" x2="180" y2="720" stroke="#06B6D4" stroke-width="0.5" /><line key="4" x1="240" y1="0" x2="240" y2="720" stroke="#06B6D4" stroke-width="0.5" /><line key="5" x1="300" y1="0" x2="300" y2="720" stroke="#06B6D4" stroke-width="0.5" /><line key="6" x1="360" y1="0" x2="360" y2="720" stroke="#06B6D4" stroke-width="0.5" /><line key="7" x1="420" y1="0" x2="420" y2="720" stroke="#06B6D4" stroke-width="0.5" /><line key="8" x1="480" y1="0" x2="480" y2="720" stroke="#06B6D4" stroke-width="0.5" /><line key="9" x1="540" y1="0" x2="540" y2="720" stroke="#06B6D4" stroke-width="0.5" /><line key="10" x1="600" y1="0" x2="600" y2="720" stroke="#06B6D4" stroke-width="0.5" /><line key="11" x1="660" y1="0" x2="660" y2="720" stroke="#06B6D4" stroke-width="0.5" /><line key="12" x1="720" y1="0" x2="720" y2="720" stroke="#06B6D4" stroke-width="0.5" /><line key="13" x1="780" y1="0" x2="780" y2="720" stroke="#06B6D4" stroke-width="0.5" /><line key="14" x1="840" y1="0" x2="840" y2="720" stroke="#06B6D4" stroke-width="0.5" /><line key="15" x1="900" y1="0" x2="900" y2="720" stroke="#06B6D4" stroke-width="0.5" /><line key="16" x1="960" y1="0" x2="960" y2="720" stroke="#06B6D4" stroke-width="0.5" /><line key="17" x1="1020" y1="0" x2="1020" y2="720" stroke="#06B6D4" stroke-width="0.5" /><line key="18" x1="1080" y1="0" x2="1080" y2="720" stroke="#06B6D4" stroke-width="0.5" /><line key="19" x1="1140" y1="0" x2="1140" y2="720" stroke="#06B6D4" stroke-width="0.5" /><line key="20" x1="1200" y1="0" x2="1200" y2="720" stroke="#06B6D4" stroke-width="0.5" /></svg>